<svg xmlns="http://www.w3.org/2000/svg" width="43" height="43" viewBox="0 0 43 43" fill="none"><mask id="mask0_61_653" style="mask-type:alpha" maskUnits="userSpaceOnUse" x="0" y="0" width="43" height="43"><rect width="43" height="43" fill="#D9D9D9"></rect></mask><g mask="url(#mask0_61_653)"><path d="M8.22853 13.245L8.64621 8.87244L11.3916 9.36432L12.2899 9.52526L12.5321 8.64543L13.1289 6.47762L15.4957 6.0986L16.6988 8.27999L17.0806 8.9723L17.8423 8.76051L23.7618 7.11463C24.049 7.44791 24.4123 7.68607 24.7771 7.8574C25.3927 8.14644 26.1301 8.30337 26.8139 8.42146C27.1305 8.47615 27.4246 8.52117 27.7117 8.56514C28.109 8.62598 28.4931 8.6848 28.9058 8.7644C29.5806 8.89461 30.1496 9.05154 30.592 9.27367C31.8784 9.91957 32.6787 10.7361 33.6846 11.7624C33.7467 11.8257 33.8096 11.8899 33.8734 11.9548C34.8854 12.9848 36.0673 14.1368 37.9959 15.2412C37.9225 17.3534 36.8594 19.612 34.1898 21.4966L33.745 21.8106L33.7674 22.3546C33.8692 24.8331 33.392 26.745 32.4474 28.2381C31.5024 29.7317 30.0306 30.8997 27.9786 31.7856L27.3809 32.0437L27.375 32.6947C27.3677 33.5121 26.8618 34.3461 25.8251 35.3152C25.0931 35.9995 24.2271 36.6382 23.3047 37.3185C23.0687 37.4925 22.829 37.6693 22.5869 37.8503L19.6273 36.5648L22.4466 34.5195L22.8957 34.1938L22.857 33.6403C22.7853 32.6146 22.5876 31.4304 21.8614 30.3375C21.1945 29.3339 20.1486 28.5045 18.5841 27.9005L16.7636 21.414L16.5965 20.8186L15.9892 20.7021C14.0523 20.3305 13.3843 19.814 13.1053 19.4389C12.9611 19.245 12.8708 19.0242 12.7981 18.7336C12.7608 18.5843 12.7304 18.427 12.6966 18.243C12.6925 18.2209 12.6884 18.1984 12.6842 18.1753C12.6549 18.0153 12.6216 17.8332 12.5812 17.6524L12.3436 16.5884L11.304 16.9168L6.92296 18.3008C5.48574 17.2855 4.9837 16.2676 5.00043 15.6555C5.00828 15.3683 5.12436 15.0905 5.44654 14.8291C5.79238 14.5485 6.39876 14.2748 7.37006 14.1405L8.15334 14.0321L8.22853 13.245Z" stroke="#502D7D" stroke-width="2"></path><path d="M8.22853 13.245L8.64621 8.87244L11.3916 9.36432L12.2899 9.52526L12.5321 8.64543L13.1289 6.47762L15.4957 6.0986L16.6988 8.27999L17.0806 8.9723L17.8423 8.76051L23.7618 7.11463C24.049 7.44791 24.4123 7.68607 24.7771 7.8574C25.3927 8.14644 26.1301 8.30337 26.8139 8.42146C27.1305 8.47615 27.4246 8.52117 27.7117 8.56514C28.109 8.62598 28.4931 8.6848 28.9058 8.7644C29.5806 8.89461 30.1496 9.05154 30.592 9.27367C31.8784 9.91957 32.6787 10.7361 33.6846 11.7624C33.7467 11.8257 33.8096 11.8899 33.8734 11.9548C34.8854 12.9848 36.0673 14.1368 37.9959 15.2412C37.9225 17.3534 36.8594 19.612 34.1898 21.4966L33.745 21.8106L33.7674 22.3546C33.8692 24.8331 33.392 26.745 32.4474 28.2381C31.5024 29.7317 30.0306 30.8997 27.9786 31.7856L27.3809 32.0437L27.375 32.6947C27.3677 33.5121 26.8618 34.3461 25.8251 35.3152C25.0931 35.9995 24.2271 36.6382 23.3047 37.3185C23.0687 37.4925 22.829 37.6693 22.5869 37.8503L19.6273 36.5648L22.4466 34.5195L22.8957 34.1938L22.857 33.6403C22.7853 32.6146 22.5876 31.4304 21.8614 30.3375C21.1945 29.3339 20.1486 28.5045 18.5841 27.9005L16.7636 21.414L16.5965 20.8186L15.9892 20.7021C14.0523 20.3305 13.3843 19.814 13.1053 19.4389C12.9611 19.245 12.8708 19.0242 12.7981 18.7336C12.7608 18.5843 12.7304 18.427 12.6966 18.243C12.6925 18.2209 12.6884 18.1984 12.6842 18.1753C12.6549 18.0153 12.6216 17.8332 12.5812 17.6524L12.3436 16.5884L11.304 16.9168L6.92296 18.3008C5.48574 17.2855 4.9837 16.2676 5.00043 15.6555C5.00828 15.3683 5.12436 15.0905 5.44654 14.8291C5.79238 14.5485 6.39876 14.2748 7.37006 14.1405L8.15334 14.0321L8.22853 13.245Z" stroke="url(#paint0_linear_61_653)" stroke-width="2"></path></g><defs><linearGradient id="paint0_linear_61_653" x1="8.66076" y1="10.8578" x2="39.1244" y2="14.2544" gradientUnits="userSpaceOnUse"><stop stop-color="#F02CFD"></stop><stop offset="1" stop-color="#1ACDFF"></stop></linearGradient></defs></svg>