<svg xmlns="http://www.w3.org/2000/svg" width="43" height="43" viewBox="0 0 43 43" fill="none"><mask id="mask0_61_652" style="mask-type:alpha" maskUnits="userSpaceOnUse" x="0" y="0" width="43" height="43"><rect width="43" height="43" fill="#D9D9D9"></rect></mask><g mask="url(#mask0_61_652)"><path d="M37 15.5C37 16.8807 35.8807 18 34.5 18C33.1193 18 32 16.8807 32 15.5C32 14.1193 33.1193 13 34.5 13C35.8807 13 37 14.1193 37 15.5Z" fill="#502D7D"></path><path d="M37 15.5C37 16.8807 35.8807 18 34.5 18C33.1193 18 32 16.8807 32 15.5C32 14.1193 33.1193 13 34.5 13C35.8807 13 37 14.1193 37 15.5Z" fill="url(#paint0_linear_61_652)"></path><path d="M5.8 29.4139H2.25V23.916C2.25 19.8178 5.54104 16.5021 9.6 16.5021H16.95V25.8319V26.0819H17.2H23.85H23.9704L24.0454 25.9879L30.6954 17.6534L30.75 17.585V17.4975V12.4202V12.1702H30.5H25.05V8.83823H30.5C31.4408 8.83823 32.3436 9.2151 33.0095 9.88662C33.6755 10.5582 34.05 11.4695 34.05 12.4202V18.7518L25.6289 29.4139H17.2H16.95V29.6639C16.95 32.7083 14.514 35.1618 11.5 35.1618C8.48604 35.1618 6.05 32.7083 6.05 29.6639V29.4139H5.8ZM9.6 29.4139H9.35V29.6639C9.35 30.8537 10.315 31.8298 11.5 31.8298C12.685 31.8298 13.65 30.8537 13.65 29.6639V29.4139H13.4H9.6ZM13.4 26.0819H13.65V25.8319V20.084V19.834H13.4H9.6C7.36996 19.834 5.55 21.6723 5.55 23.916V25.8319V26.0819H5.8H13.4ZM28.85 29.6639C28.85 26.6195 31.286 24.166 34.3 24.166C37.314 24.166 39.75 26.6195 39.75 29.6639C39.75 32.7083 37.314 35.1618 34.3 35.1618C31.286 35.1618 28.85 32.7083 28.85 29.6639ZM32.15 29.6639C32.15 30.8537 33.115 31.8298 34.3 31.8298C35.485 31.8298 36.45 30.8537 36.45 29.6639C36.45 28.474 35.485 27.4979 34.3 27.4979C33.115 27.4979 32.15 28.474 32.15 29.6639ZM16.95 14.0861H7.95V10.7542H16.95V14.0861Z" fill="#502D7D"></path><path d="M5.8 29.4139H2.25V23.916C2.25 19.8178 5.54104 16.5021 9.6 16.5021H16.95V25.8319V26.0819H17.2H23.85H23.9704L24.0454 25.9879L30.6954 17.6534L30.75 17.585V17.4975V12.4202V12.1702H30.5H25.05V8.83823H30.5C31.4408 8.83823 32.3436 9.2151 33.0095 9.88662C33.6755 10.5582 34.05 11.4695 34.05 12.4202V18.7518L25.6289 29.4139H17.2H16.95V29.6639C16.95 32.7083 14.514 35.1618 11.5 35.1618C8.48604 35.1618 6.05 32.7083 6.05 29.6639V29.4139H5.8ZM9.6 29.4139H9.35V29.6639C9.35 30.8537 10.315 31.8298 11.5 31.8298C12.685 31.8298 13.65 30.8537 13.65 29.6639V29.4139H13.4H9.6ZM13.4 26.0819H13.65V25.8319V20.084V19.834H13.4H9.6C7.36996 19.834 5.55 21.6723 5.55 23.916V25.8319V26.0819H5.8H13.4ZM28.85 29.6639C28.85 26.6195 31.286 24.166 34.3 24.166C37.314 24.166 39.75 26.6195 39.75 29.6639C39.75 32.7083 37.314 35.1618 34.3 35.1618C31.286 35.1618 28.85 32.7083 28.85 29.6639ZM32.15 29.6639C32.15 30.8537 33.115 31.8298 34.3 31.8298C35.485 31.8298 36.45 30.8537 36.45 29.6639C36.45 28.474 35.485 27.4979 34.3 27.4979C33.115 27.4979 32.15 28.474 32.15 29.6639ZM16.95 14.0861H7.95V10.7542H16.95V14.0861Z" fill="url(#paint1_linear_61_652)"></path><path d="M5.8 29.4139H2.25V23.916C2.25 19.8178 5.54104 16.5021 9.6 16.5021H16.95V25.8319V26.0819H17.2H23.85H23.9704L24.0454 25.9879L30.6954 17.6534L30.75 17.585V17.4975V12.4202V12.1702H30.5H25.05V8.83823H30.5C31.4408 8.83823 32.3436 9.2151 33.0095 9.88662C33.6755 10.5582 34.05 11.4695 34.05 12.4202V18.7518L25.6289 29.4139H17.2H16.95V29.6639C16.95 32.7083 14.514 35.1618 11.5 35.1618C8.48604 35.1618 6.05 32.7083 6.05 29.6639V29.4139H5.8ZM9.6 29.4139H9.35V29.6639C9.35 30.8537 10.315 31.8298 11.5 31.8298C12.685 31.8298 13.65 30.8537 13.65 29.6639V29.4139H13.4H9.6ZM13.4 26.0819H13.65V25.8319V20.084V19.834H13.4H9.6C7.36996 19.834 5.55 21.6723 5.55 23.916V25.8319V26.0819H5.8H13.4ZM28.85 29.6639C28.85 26.6195 31.286 24.166 34.3 24.166C37.314 24.166 39.75 26.6195 39.75 29.6639C39.75 32.7083 37.314 35.1618 34.3 35.1618C31.286 35.1618 28.85 32.7083 28.85 29.6639ZM32.15 29.6639C32.15 30.8537 33.115 31.8298 34.3 31.8298C35.485 31.8298 36.45 30.8537 36.45 29.6639C36.45 28.474 35.485 27.4979 34.3 27.4979C33.115 27.4979 32.15 28.474 32.15 29.6639ZM16.95 14.0861H7.95V10.7542H16.95V14.0861Z" stroke="#F7F7F7" stroke-width="0.5"></path></g><defs><linearGradient id="paint0_linear_61_652" x1="32.6658" y1="13.8614" x2="37.1688" y2="12.7202" gradientUnits="userSpaceOnUse"><stop stop-color="#F02CFD"></stop><stop offset="1" stop-color="#1ACDFF"></stop></linearGradient><linearGradient id="paint1_linear_61_652" x1="7.06025" y1="13.2096" x2="39.776" y2="18.2296" gradientUnits="userSpaceOnUse"><stop stop-color="#F02CFD"></stop><stop offset="1" stop-color="#1ACDFF"></stop></linearGradient></defs></svg>