<svg xmlns="http://www.w3.org/2000/svg" width="43" height="43" viewBox="0 0 43 43" fill="none"><mask id="mask0_61_668" style="mask-type:alpha" maskUnits="userSpaceOnUse" x="0" y="0" width="43" height="43"><rect width="43" height="43" fill="#D9D9D9"></rect></mask><g mask="url(#mask0_61_668)"><path d="M19.95 15.3448C19.3977 15.3448 18.95 15.7925 18.95 16.3448C18.95 16.8971 19.3977 17.3448 19.95 17.3448V15.3448ZM37 17.3448C37.5523 17.3448 38 16.8971 38 16.3448C38 15.7925 37.5523 15.3448 37 15.3448V17.3448ZM5.24512 18.8614C4.8829 19.2783 4.92723 19.9099 5.34413 20.2721C5.76104 20.6343 6.39265 20.59 6.75488 20.1731L5.24512 18.8614ZM10.3509 14.5096L11.1057 15.1655L11.1059 15.1652L10.3509 14.5096ZM14.9853 12.3793L14.9853 11.3793L14.9853 11.3793L14.9853 12.3793ZM15.3 13.3793C15.8523 13.3793 16.3 12.9316 16.3 12.3793C16.3 11.827 15.8523 11.3793 15.3 11.3793V13.3793ZM6 32C5.44772 32 5 32.4477 5 33C5 33.5523 5.44772 34 6 34V32ZM14.525 33V34C14.7452 34 14.9592 33.9273 15.1339 33.7933L14.525 33ZM20.725 28.2414L20.1565 27.4187C20.1428 27.4282 20.1293 27.438 20.1161 27.4481L20.725 28.2414ZM23.825 25.8621L23.1915 25.0883L23.1911 25.0886L23.825 25.8621ZM19.95 20.3103L19.3866 19.4842L19.3865 19.4842L19.95 20.3103ZM13.2383 23.4167C12.7638 23.6993 12.6082 24.3131 12.8908 24.7876C13.1734 25.2621 13.7872 25.4176 14.2617 25.135L13.2383 23.4167ZM18.4 10V9V10ZM33.9 10V9V10ZM19.95 17.3448H37V15.3448H19.95V17.3448ZM6.75488 20.1731L11.1057 15.1655L9.59597 13.8537L5.24512 18.8614L6.75488 20.1731ZM11.1059 15.1652C11.5953 14.6017 12.1943 14.1522 12.8627 13.845L12.0274 12.0277C11.0982 12.4548 10.2698 13.0777 9.59578 13.8539L11.1059 15.1652ZM12.8627 13.845C13.5311 13.5377 14.2544 13.3793 14.9854 13.3793L14.9853 11.3793C13.9649 11.3793 12.9567 11.6006 12.0274 12.0277L12.8627 13.845ZM14.9853 13.3793H15.3V11.3793H14.9853V13.3793ZM6 34H14.525V32H6V34ZM15.1339 33.7933L21.3339 29.0347L20.1161 27.4481L13.9161 32.2067L15.1339 33.7933ZM20.725 28.2414C21.2935 29.064 21.2936 29.064 21.2936 29.064C21.2937 29.0639 21.2937 29.0639 21.2938 29.0639C21.2939 29.0638 21.294 29.0637 21.2942 29.0636C21.2945 29.0634 21.2948 29.0631 21.2953 29.0628C21.2962 29.0622 21.2973 29.0614 21.2988 29.0604C21.3018 29.0583 21.306 29.0554 21.3114 29.0516C21.3222 29.0441 21.3377 29.0333 21.3578 29.0191C21.398 28.9908 21.4567 28.9493 21.5323 28.8951C21.6837 28.7867 21.9034 28.6273 22.181 28.4203C22.7361 28.0065 23.5233 27.4023 24.4589 26.6355L23.1911 25.0886C22.2822 25.8335 21.5194 26.4189 20.9856 26.8169C20.7188 27.0158 20.5093 27.1678 20.3676 27.2693C20.2968 27.32 20.2429 27.3581 20.2073 27.3832C20.1895 27.3957 20.1762 27.405 20.1677 27.4109C20.1634 27.4139 20.1604 27.416 20.1585 27.4173C20.1575 27.418 20.1569 27.4184 20.1566 27.4187C20.1564 27.4188 20.1563 27.4188 20.1563 27.4188C20.1563 27.4188 20.1563 27.4188 20.1563 27.4188C20.1563 27.4188 20.1564 27.4188 20.1564 27.4188C20.1564 27.4187 20.1565 27.4187 20.725 28.2414ZM24.4585 26.6358C25.5968 25.7039 26.2299 24.5777 26.3898 23.4216C26.5484 22.2749 26.2299 21.1734 25.6003 20.3144C24.3171 18.5637 21.7753 17.8551 19.3866 19.4842L20.5134 21.1365C21.9997 20.1229 23.3329 20.6041 23.9872 21.4967C24.3263 21.9594 24.4922 22.5431 24.4086 23.1476C24.3263 23.7428 23.9907 24.434 23.1915 25.0883L24.4585 26.6358ZM19.3865 19.4842C17.8231 20.5506 16.2851 21.5344 15.1365 22.2523C14.5627 22.611 14.087 22.9028 13.7553 23.1046C13.5894 23.2055 13.4596 23.2839 13.3715 23.3368C13.3275 23.3633 13.2939 23.3835 13.2714 23.3969C13.2602 23.4036 13.2518 23.4087 13.2462 23.412C13.2435 23.4136 13.2414 23.4148 13.2401 23.4156C13.2394 23.416 13.2389 23.4163 13.2386 23.4165C13.2385 23.4166 13.2384 23.4166 13.2383 23.4167C13.2383 23.4167 13.2383 23.4167 13.2383 23.4167C13.2383 23.4167 13.2383 23.4167 13.75 24.2759C14.2617 25.135 14.2617 25.135 14.2618 25.135C14.2618 25.135 14.2619 25.1349 14.2619 25.1349C14.2621 25.1348 14.2623 25.1347 14.2625 25.1346C14.2629 25.1343 14.2635 25.1339 14.2644 25.1334C14.266 25.1325 14.2683 25.1311 14.2714 25.1292C14.2776 25.1255 14.2866 25.1201 14.2985 25.1131C14.3222 25.0989 14.3571 25.078 14.4024 25.0507C14.4932 24.9961 14.6258 24.916 14.7947 24.8133C15.1323 24.6079 15.615 24.3118 16.1966 23.9482C17.3591 23.2216 18.9211 22.2226 20.5135 21.1365L19.3865 19.4842ZM16.3 23.4828V13.1724H14.3V23.4828H16.3ZM16.3 13.1724C16.3 12.5889 16.5267 12.0338 16.9232 11.6281L15.4927 10.2303C14.7265 11.0144 14.3 12.0732 14.3 13.1724H16.3ZM16.9232 11.6281C17.3189 11.2231 17.8506 11 18.4 11V9C17.3051 9 16.2598 9.44534 15.4927 10.2303L16.9232 11.6281ZM18.4 11H33.9V9H18.4V11ZM33.9 11C34.4494 11 34.9811 11.2231 35.3768 11.6281L36.8073 10.2303C36.0402 9.44534 34.9949 9 33.9 9V11ZM35.3768 11.6281C35.7733 12.0338 36 12.5889 36 13.1724H38C38 12.0732 37.5735 11.0144 36.8073 10.2303L35.3768 11.6281ZM36 13.1724V22.6897H38V13.1724H36ZM36 22.6897C36 23.2732 35.7733 23.8283 35.3768 24.234L36.8073 25.6318C37.5735 24.8476 38 23.7889 38 22.6897H36ZM35.3768 24.234C34.9811 24.6389 34.4494 24.8621 33.9 24.8621V26.8621C34.9949 26.8621 36.0402 26.4167 36.8073 25.6318L35.3768 24.234ZM33.9 24.8621H23.825V26.8621H33.9V24.8621Z" fill="#502D7D"></path><path d="M19.95 15.3448C19.3977 15.3448 18.95 15.7925 18.95 16.3448C18.95 16.8971 19.3977 17.3448 19.95 17.3448V15.3448ZM37 17.3448C37.5523 17.3448 38 16.8971 38 16.3448C38 15.7925 37.5523 15.3448 37 15.3448V17.3448ZM5.24512 18.8614C4.8829 19.2783 4.92723 19.9099 5.34413 20.2721C5.76104 20.6343 6.39265 20.59 6.75488 20.1731L5.24512 18.8614ZM10.3509 14.5096L11.1057 15.1655L11.1059 15.1652L10.3509 14.5096ZM14.9853 12.3793L14.9853 11.3793L14.9853 11.3793L14.9853 12.3793ZM15.3 13.3793C15.8523 13.3793 16.3 12.9316 16.3 12.3793C16.3 11.827 15.8523 11.3793 15.3 11.3793V13.3793ZM6 32C5.44772 32 5 32.4477 5 33C5 33.5523 5.44772 34 6 34V32ZM14.525 33V34C14.7452 34 14.9592 33.9273 15.1339 33.7933L14.525 33ZM20.725 28.2414L20.1565 27.4187C20.1428 27.4282 20.1293 27.438 20.1161 27.4481L20.725 28.2414ZM23.825 25.8621L23.1915 25.0883L23.1911 25.0886L23.825 25.8621ZM19.95 20.3103L19.3866 19.4842L19.3865 19.4842L19.95 20.3103ZM13.2383 23.4167C12.7638 23.6993 12.6082 24.3131 12.8908 24.7876C13.1734 25.2621 13.7872 25.4176 14.2617 25.135L13.2383 23.4167ZM18.4 10V9V10ZM33.9 10V9V10ZM19.95 17.3448H37V15.3448H19.95V17.3448ZM6.75488 20.1731L11.1057 15.1655L9.59597 13.8537L5.24512 18.8614L6.75488 20.1731ZM11.1059 15.1652C11.5953 14.6017 12.1943 14.1522 12.8627 13.845L12.0274 12.0277C11.0982 12.4548 10.2698 13.0777 9.59578 13.8539L11.1059 15.1652ZM12.8627 13.845C13.5311 13.5377 14.2544 13.3793 14.9854 13.3793L14.9853 11.3793C13.9649 11.3793 12.9567 11.6006 12.0274 12.0277L12.8627 13.845ZM14.9853 13.3793H15.3V11.3793H14.9853V13.3793ZM6 34H14.525V32H6V34ZM15.1339 33.7933L21.3339 29.0347L20.1161 27.4481L13.9161 32.2067L15.1339 33.7933ZM20.725 28.2414C21.2935 29.064 21.2936 29.064 21.2936 29.064C21.2937 29.0639 21.2937 29.0639 21.2938 29.0639C21.2939 29.0638 21.294 29.0637 21.2942 29.0636C21.2945 29.0634 21.2948 29.0631 21.2953 29.0628C21.2962 29.0622 21.2973 29.0614 21.2988 29.0604C21.3018 29.0583 21.306 29.0554 21.3114 29.0516C21.3222 29.0441 21.3377 29.0333 21.3578 29.0191C21.398 28.9908 21.4567 28.9493 21.5323 28.8951C21.6837 28.7867 21.9034 28.6273 22.181 28.4203C22.7361 28.0065 23.5233 27.4023 24.4589 26.6355L23.1911 25.0886C22.2822 25.8335 21.5194 26.4189 20.9856 26.8169C20.7188 27.0158 20.5093 27.1678 20.3676 27.2693C20.2968 27.32 20.2429 27.3581 20.2073 27.3832C20.1895 27.3957 20.1762 27.405 20.1677 27.4109C20.1634 27.4139 20.1604 27.416 20.1585 27.4173C20.1575 27.418 20.1569 27.4184 20.1566 27.4187C20.1564 27.4188 20.1563 27.4188 20.1563 27.4188C20.1563 27.4188 20.1563 27.4188 20.1563 27.4188C20.1563 27.4188 20.1564 27.4188 20.1564 27.4188C20.1564 27.4187 20.1565 27.4187 20.725 28.2414ZM24.4585 26.6358C25.5968 25.7039 26.2299 24.5777 26.3898 23.4216C26.5484 22.2749 26.2299 21.1734 25.6003 20.3144C24.3171 18.5637 21.7753 17.8551 19.3866 19.4842L20.5134 21.1365C21.9997 20.1229 23.3329 20.6041 23.9872 21.4967C24.3263 21.9594 24.4922 22.5431 24.4086 23.1476C24.3263 23.7428 23.9907 24.434 23.1915 25.0883L24.4585 26.6358ZM19.3865 19.4842C17.8231 20.5506 16.2851 21.5344 15.1365 22.2523C14.5627 22.611 14.087 22.9028 13.7553 23.1046C13.5894 23.2055 13.4596 23.2839 13.3715 23.3368C13.3275 23.3633 13.2939 23.3835 13.2714 23.3969C13.2602 23.4036 13.2518 23.4087 13.2462 23.412C13.2435 23.4136 13.2414 23.4148 13.2401 23.4156C13.2394 23.416 13.2389 23.4163 13.2386 23.4165C13.2385 23.4166 13.2384 23.4166 13.2383 23.4167C13.2383 23.4167 13.2383 23.4167 13.2383 23.4167C13.2383 23.4167 13.2383 23.4167 13.75 24.2759C14.2617 25.135 14.2617 25.135 14.2618 25.135C14.2618 25.135 14.2619 25.1349 14.2619 25.1349C14.2621 25.1348 14.2623 25.1347 14.2625 25.1346C14.2629 25.1343 14.2635 25.1339 14.2644 25.1334C14.266 25.1325 14.2683 25.1311 14.2714 25.1292C14.2776 25.1255 14.2866 25.1201 14.2985 25.1131C14.3222 25.0989 14.3571 25.078 14.4024 25.0507C14.4932 24.9961 14.6258 24.916 14.7947 24.8133C15.1323 24.6079 15.615 24.3118 16.1966 23.9482C17.3591 23.2216 18.9211 22.2226 20.5135 21.1365L19.3865 19.4842ZM16.3 23.4828V13.1724H14.3V23.4828H16.3ZM16.3 13.1724C16.3 12.5889 16.5267 12.0338 16.9232 11.6281L15.4927 10.2303C14.7265 11.0144 14.3 12.0732 14.3 13.1724H16.3ZM16.9232 11.6281C17.3189 11.2231 17.8506 11 18.4 11V9C17.3051 9 16.2598 9.44534 15.4927 10.2303L16.9232 11.6281ZM18.4 11H33.9V9H18.4V11ZM33.9 11C34.4494 11 34.9811 11.2231 35.3768 11.6281L36.8073 10.2303C36.0402 9.44534 34.9949 9 33.9 9V11ZM35.3768 11.6281C35.7733 12.0338 36 12.5889 36 13.1724H38C38 12.0732 37.5735 11.0144 36.8073 10.2303L35.3768 11.6281ZM36 13.1724V22.6897H38V13.1724H36ZM36 22.6897C36 23.2732 35.7733 23.8283 35.3768 24.234L36.8073 25.6318C37.5735 24.8476 38 23.7889 38 22.6897H36ZM35.3768 24.234C34.9811 24.6389 34.4494 24.8621 33.9 24.8621V26.8621C34.9949 26.8621 36.0402 26.4167 36.8073 25.6318L35.3768 24.234ZM33.9 24.8621H23.825V26.8621H33.9V24.8621Z" fill="url(#paint0_linear_61_668)"></path></g><defs><linearGradient id="paint0_linear_61_668" x1="10.1281" y1="13.9626" x2="36.8756" y2="17.8674" gradientUnits="userSpaceOnUse"><stop stop-color="#F02CFD"></stop><stop offset="1" stop-color="#1ACDFF"></stop></linearGradient></defs></svg>